<?xml version="1.0" encoding="UTF-8" standalone="no"?>
<svg
   xmlns:dc="http://purl.org/dc/elements/1.1/"
   xmlns:cc="http://creativecommons.org/ns#"
   xmlns:rdf="http://www.w3.org/1999/02/22-rdf-syntax-ns#"
   xmlns:svg="http://www.w3.org/2000/svg"
   xmlns="http://www.w3.org/2000/svg"
   xmlns:sodipodi="http://sodipodi.sourceforge.net/DTD/sodipodi-0.dtd"
   xmlns:inkscape="http://www.inkscape.org/namespaces/inkscape"
   width="10000"
   height="10000"
   viewBox="0 0 2645.8334 2645.8334"
   version="1.1"
   id="svg8"
   inkscape:version="1.0.2-2 (e86c870879, 2021-01-15)"
   sodipodi:docname="level4.svg">
  <defs
     id="defs2" />
  <sodipodi:namedview
     id="base"
     pagecolor="#ffffff"
     bordercolor="#666666"
     borderopacity="1.0"
     inkscape:pageopacity="0.0"
     inkscape:pageshadow="2"
     inkscape:zoom="7.9195962"
     inkscape:cx="-872.44334"
     inkscape:cy="1400.7884"
     inkscape:document-units="mm"
     inkscape:current-layer="layer1"
     inkscape:document-rotation="0"
     showgrid="false"
     units="px"
     inkscape:window-width="1920"
     inkscape:window-height="1010"
     inkscape:window-x="-7"
     inkscape:window-y="-7"
     inkscape:window-maximized="1" />
  <metadata
     id="metadata5">
    <rdf:RDF>
      <cc:Work
         rdf:about="">
        <dc:format>image/svg+xml</dc:format>
        <dc:type
           rdf:resource="http://purl.org/dc/dcmitype/StillImage" />
        <dc:title />
      </cc:Work>
    </rdf:RDF>
  </metadata>
  <g
     inkscape:label="Layer 1"
     inkscape:groupmode="layer"
     id="layer1">
    <path
       id="rect1425-4"
       style="fill:#000000;fill-opacity:1;stroke-width:0.209864"
       d="m 116.1832,241.94584 v 81.5341 h -13.89809 v -81.5341 z" />
    <path
       id="rect1425"
       style="fill:#000000;fill-opacity:1;stroke-width:0.342828"
       d="M -183.55719,364.29402 H 34.022029 v 13.89809 H -183.55719 Z" />
    <path
       id="rect1425-8"
       style="fill:#000000;fill-opacity:1;stroke-width:0.817167"
       d="m -183.55726,-857.99704 7e-5,1236.18915 -13.89801,4e-5 -6e-5,-1236.18923 z" />
    <path
       style="fill:#ff0000;fill-opacity:1;stroke:#ff0000;stroke-width:5.45659;stroke-linecap:butt;stroke-linejoin:miter;stroke-miterlimit:4;stroke-dasharray:none;stroke-opacity:1"
       d="M -183.55726,-857.99704 V 364.30783"
       id="path918-0-1"
       sodipodi:nodetypes="cc" />
    <path
       id="rect1425-8-2"
       style="fill:#5468ff;fill-opacity:1;stroke-width:0.380158"
       d="m 2015.2431,877.10919 231.6979,133.77101 -6.949,12.036 -231.6979,-133.771 z" />
    <path
       id="rect1425-8-2-1"
       style="fill:#5468ff;fill-opacity:1;stroke-width:0.817167"
       d="m -1280.2211,-752.79841 10e-5,1236.18915 -13.898,4e-5 -10e-5,-1236.18923 z" />
    <path
       id="rect1425-3-6"
       style="fill:#000000;fill-opacity:1;stroke-width:0.226496"
       d="m 2546.3661,1017.2588 h 94.9694 v 13.898 h -94.9694 z" />
    <path
       style="fill:#ff706d;fill-opacity:1;stroke:#000000;stroke-width:0.264583px;stroke-linecap:butt;stroke-linejoin:miter;stroke-opacity:1"
       d="m 2890.44,1076.0457 -26.3799,114.9073 26.727,55.592 -19.2434,152.8782 h 18.7089 z"
       id="path1676" />
    <path
       style="fill:#ff706d;fill-opacity:1;stroke:#000000;stroke-width:0.264583px;stroke-linecap:butt;stroke-linejoin:miter;stroke-opacity:1"
       d="m 2831.9878,1397.8196 14.4326,-119.2022 -17.1053,-95.148 3.7418,-83.9226 27.796,-22.4507 h -24.5888 -619.0036 v 199.6036 h -204.9492 v -199.6036 l -306.0888,0.1396 -0.6466,67.2704 55.3325,1.5916 7.224,258.1704 1053.6992,-6.1812 z"
       id="path1678"
       sodipodi:nodetypes="cccccccccccccccc" />
    <path
       id="rect915-4-1-6"
       style="fill:#72e5f7;fill-opacity:1;stroke-width:0;stroke-miterlimit:4;stroke-dasharray:none"
       d="m 2904.9019,1587.7989 -201.3051,201.3051 -10.1574,-10.1575 201.3051,-201.3051 z" />
    <path
       id="rect915-4-1-6-7"
       style="fill:#72e5f7;fill-opacity:1;stroke-width:0;stroke-miterlimit:4;stroke-dasharray:none"
       d="m 2703.5968,1789.104 h -675.4403 l 10e-5,-14.3648 h 675.4404 z" />
    <path
       style="fill:#ff0000;fill-opacity:1;stroke:#ff0000;stroke-width:1.34364;stroke-linecap:butt;stroke-linejoin:miter;stroke-miterlimit:4;stroke-dasharray:none;stroke-opacity:1"
       d="m 2500.5969,1774.3718 h 74.115"
       id="path918-0-1-8"
       sodipodi:nodetypes="cc" />
    <path
       style="fill:#ff0000;fill-opacity:1;stroke:#ff0000;stroke-width:1.34364;stroke-linecap:butt;stroke-linejoin:miter;stroke-miterlimit:4;stroke-dasharray:none;stroke-opacity:1"
       d="m 2327.17,1774.3718 h 74.115"
       id="path918-0-1-8-4"
       sodipodi:nodetypes="cc" />
    <path
       style="fill:#ff0000;fill-opacity:1;stroke:#ff0000;stroke-width:1.34364;stroke-linecap:butt;stroke-linejoin:miter;stroke-miterlimit:4;stroke-dasharray:none;stroke-opacity:1"
       d="m 2176.3566,1774.3718 h 74.1149"
       id="path918-0-1-8-4-7"
       sodipodi:nodetypes="cc" />
    <path
       id="rect1425-8-2-0"
       style="fill:#5468ff;fill-opacity:1;stroke-width:0.380158"
       d="m 1447.5894,1950.3506 231.6979,133.7709 -6.949,12.0361 -231.6979,-133.771 z" />
    <path
       id="rect1425-8-2-0-3"
       style="fill:#5468ff;fill-opacity:1;stroke-width:0.380158"
       d="m 2252.1345,2000.1012 -189.1806,189.1806 -9.8274,-9.8274 189.1807,-189.1805 z" />
    <path
       id="rect1425-8-2-0-3-4"
       style="fill:#ff706d;fill-opacity:1;stroke-width:0.555497"
       d="M 861.24861,681.9008 V 110.65036 l 13.8981,-2.1e-4 -10e-5,571.25043 z" />
    <path
       id="rect1425-3-6-0"
       style="fill:#000000;fill-opacity:1;stroke-width:0.227762"
       d="m 1569.434,1775.6511 h 96.0342 v 13.8981 h -96.0342 z" />
    <path
       id="rect1425-3-6-0-2"
       style="fill:#000000;fill-opacity:1;stroke-width:0.354679"
       d="m 1583.3321,1556.6687 v 232.8805 h -13.8981 v -232.8805 z" />
    <path
       id="rect915-4-1-6-7-2"
       style="fill:#72e5f7;fill-opacity:1;stroke-width:0;stroke-miterlimit:4;stroke-dasharray:none"
       d="m 1568.9673,1556.6687 v -156.8571 h 14.3648 v 156.8571 z" />
    <path
       id="rect915-4-1-6-4"
       style="fill:#72e5f7;fill-opacity:1;stroke-width:0;stroke-miterlimit:4;stroke-dasharray:none"
       d="m 2831.9878,1397.8196 -201.3051,201.3051 -10.1574,-10.1575 201.3051,-201.3051 z" />
    <path
       id="rect915-4-1-6-7-6"
       style="fill:#72e5f7;fill-opacity:1;stroke-width:0;stroke-miterlimit:4;stroke-dasharray:none"
       d="m 2630.1536,1599.1247 h -602.7431 l 10e-5,-14.3648 h 602.7431 z" />
    <path
       id="rect1425-3-6-0-2-1"
       style="fill:#000000;fill-opacity:1;stroke-width:0.559314"
       d="m 2146.484,1858.5923 h -579.1263 v -13.8981 h 579.1263 z" />
    <path
       style="fill:#ff0000;fill-opacity:1;stroke:#ff0000;stroke-width:3.75593;stroke-linecap:butt;stroke-linejoin:miter;stroke-miterlimit:4;stroke-dasharray:none;stroke-opacity:1"
       d="M 1567.3577,1844.6942 H 2146.484"
       id="path918-0-1-1"
       sodipodi:nodetypes="cc" />
    <rect
       style="fill:#ff706d;fill-opacity:1;stroke-width:0.339"
       id="rect2011"
       width="57.452377"
       height="9.0714283"
       x="1644.6305"
       y="1583.2898" />
    <path
       id="rect915-4-1-6-7-2-5"
       style="fill:#72e5f7;fill-opacity:1;stroke-width:0;stroke-miterlimit:4;stroke-dasharray:none"
       d="m 1734.8368,1486.9657 151.5124,-40.5978 3.7179,13.8755 -151.5124,40.5976 z" />
    <path
       style="fill:#ff706d;fill-opacity:1;stroke:#000000;stroke-width:0.319703px;stroke-linecap:butt;stroke-linejoin:miter;stroke-opacity:1"
       d="m 1723.542,1388.0018 0.3657,-181.6206 -19.3105,-0.2269 v 182.2592 z"
       id="path2095"
       sodipodi:nodetypes="ccccc" />
    <path
       id="rect2097"
       style="fill:#ff706d;fill-opacity:1;stroke-width:0.264999;stroke-miterlimit:4;stroke-dasharray:none"
       d="m 1402.7258,1081.3374 h 237.369 v 323.5476 h -237.369 z" />
    <path
       id="rect1425-3-6-0-2-0"
       style="fill:#000000;fill-opacity:1;stroke-width:0.266344"
       d="m 1648.9226,1129.0324 v 131.3254 h -13.8981 v -131.3254 z" />
    <path
       id="rect1425-3-6-0-2-0-8"
       style="fill:#000000;fill-opacity:1;stroke-width:0.213974"
       d="m 1648.9226,1009.5159 v 84.7589 h -13.8981 v -84.7589 z" />
    <path
       id="rect1425-3-6-0-2-1-1"
       style="fill:#000000;fill-opacity:1;stroke-width:0.504485"
       d="m 2106.1739,1009.5159 h -471.1494 v -13.89813 h 471.1494 z" />
    <path
       id="rect1425-3-6-0-2-1-1-2"
       style="fill:#000000;fill-opacity:1;stroke-width:0.415333"
       d="m 2026.2094,1077.0961 h -319.3403 v -13.8981 h 319.3403 z" />
    <path
       id="rect1425-3-6-0-2-1-1-2-6"
       style="fill:#72e5f7;fill-opacity:1;stroke-width:0.311599"
       d="M 2106.1739,1175.3603 V 995.61777 h 13.8981 v 179.74253 z" />
    <path
       id="rect1425-3-6-0-2-1-1-2-6-1"
       style="fill:#000000;fill-opacity:1;stroke-width:0.328363"
       d="m 2012.3113,1276.6997 v -199.6036 h 13.8981 v 199.6036 z" />
    <path
       id="rect1425-3-6-0-2-1-1-2-7"
       style="fill:#5468ff;fill-opacity:1;stroke-width:0.309345"
       d="m 2203.3624,1276.6997 h -177.153 v -13.8981 h 177.153 z" />
    <path
       style="fill:#ff0000;fill-opacity:1;stroke:#ff0000;stroke-width:3.75593;stroke-linecap:butt;stroke-linejoin:miter;stroke-miterlimit:4;stroke-dasharray:none;stroke-opacity:1"
       d="m 2120.072,1175.3603 h -13.8981"
       id="path918-0-1-1-8"
       sodipodi:nodetypes="cc" />
    <path
       id="rect1425-3-6-0-2-1-1-2-6-1-1"
       style="fill:#000000;fill-opacity:1;stroke-width:0.328363"
       d="m 2203.3624,1276.6997 v -199.6036 h 13.8981 v 199.6036 z" />
    <path
       id="rect1425-3-6-0-2-1-1-2-6-1-1-0"
       style="fill:#000000;fill-opacity:1;stroke-width:0.212861"
       d="m 2203.3624,1077.0961 h -83.8786 v 13.8981 h 83.8786 z" />
    <path
       style="fill:#ff0000;fill-opacity:1;stroke:#ff0000;stroke-width:3.75593;stroke-linecap:butt;stroke-linejoin:miter;stroke-miterlimit:4;stroke-dasharray:none;stroke-opacity:1"
       d="M 2203.3624,1262.8016 V 1090.9942"
       id="path918-0-1-1-8-0"
       sodipodi:nodetypes="cc" />
    <path
       id="rect1425-4-1"
       style="fill:#000000;fill-opacity:1;stroke-width:0.209864"
       d="m 226.25056,241.94584 v 81.5341 h -13.89809 v -81.5341 z" />
    <path
       id="rect1425-4-1-7"
       style="fill:#000000;fill-opacity:1;stroke-width:0.209864"
       d="m 336.31792,241.94584 v 81.5341 h -13.89809 v -81.5341 z" />
    <path
       id="rect1425-4-1-8"
       style="fill:#000000;fill-opacity:1;stroke-width:0.209864"
       d="m 446.48064,241.94583 v 81.5341 h -13.89809 v -81.5341 z" />
    <path
       id="rect1425-4-1-7-0"
       style="fill:#000000;fill-opacity:1;stroke-width:0.209864"
       d="m 556.548,241.94583 v 81.5341 h -13.89809 v -81.5341 z" />
    <path
       id="rect1425-4-1-7-0-9"
       style="fill:#000000;fill-opacity:1;stroke-width:0.209864"
       d="m 666.61536,241.94583 v 81.5341 h -13.89809 v -81.5341 z" />
    <path
       id="rect1425-8-6"
       style="fill:#000000;fill-opacity:1;stroke-width:0.611851"
       d="m 34.022052,458.40716 693.035368,-7e-5 6e-5,13.89801 -693.035451,6e-5 z" />
    <path
       style="fill:#ff0000;fill-opacity:1;stroke:#ff0000;stroke-width:4.10933;stroke-linecap:butt;stroke-linejoin:miter;stroke-miterlimit:4;stroke-dasharray:none;stroke-opacity:1"
       d="M 34.022052,458.40716 H 727.2521"
       id="path918-0-1-5"
       sodipodi:nodetypes="cc" />
    <path
       id="rect915-4-1-6-7-2-7"
       style="fill:#72e5f7;fill-opacity:1;stroke-width:0;stroke-miterlimit:4;stroke-dasharray:none"
       d="m 19.657229,472.30516 v -94.11305 h 14.3648 v 94.11305 z" />
    <path
       id="rect915-4-1-6-7-2-7-8"
       style="fill:#72e5f7;fill-opacity:1;stroke-width:0;stroke-miterlimit:4;stroke-dasharray:none"
       d="m 727.05748,472.3051 v -94.11305 h 14.3648 v 94.11305 z" />
    <path
       id="rect1425-2"
       style="fill:#000000;fill-opacity:1;stroke-width:0.161051"
       d="m 727.05748,364.29396 h 48.01637 v 13.89809 h -48.01637 z" />
    <path
       id="rect1425-3-6-0-2-1-1-2-7-1"
       style="fill:#5468ff;fill-opacity:1;stroke-width:0.322275"
       d="M 913.90477,708.26427 H 721.63272 v -13.8981 h 192.27205 z" />
    <path
       id="rect1425-3-6-0-2-1-1-2-7-1-7"
       style="fill:#5468ff;fill-opacity:1;stroke-width:0.309345"
       d="m 741.42228,486.2032 h -177.153 v -13.8981 h 177.153 z" />
    <path
       id="rect1425-3-6-0-2-1-1-2-7-1-4"
       style="fill:#5468ff;fill-opacity:1;stroke-width:0.185585"
       d="m 654.02886,744.75856 h -63.76015 v -13.8981 h 63.76015 z" />
    <path
       id="rect1425-3-6-0-2-1-1-2-7-1-4-1"
       style="fill:#5468ff;fill-opacity:1;stroke-width:0.197316"
       d="M 526.27293,744.75856 H 454.1973 v -13.8981 h 72.07563 z" />
    <path
       id="rect1425-3-6-0-2-1-1-2-7-1-7-3"
       style="fill:#5468ff;fill-opacity:1;stroke-width:0.287531"
       d="m 461.14635,742.89656 -132.54497,76.52488 -6.94905,-12.0361 132.54497,-76.52488 z" />
    <path
       id="rect1425-3-6-0-2-1-1-2-7-1-4-1-0"
       style="fill:#5468ff;fill-opacity:1;stroke-width:0.23509"
       d="M 130.53186,819.59784 H 28.218138 v -13.8981 H 130.53186 Z" />
    <path
       id="rect1425-28"
       style="fill:#000000;fill-opacity:1;stroke-width:0.232913"
       d="m 7.7049974,645.62921 v 100.42824 h -13.89809 V 645.62921 Z" />
    <path
       id="rect1425-8-2-0-3-4-4"
       style="fill:#ff706d;fill-opacity:1;stroke-width:0.888643"
       d="M -469.8223,819.42144 H 992.07766 l 5.4e-4,13.8981 -1461.89999,-10e-5 z" />
    <path
       id="rect1425-28-2"
       style="fill:#000000;fill-opacity:1;stroke-width:0.182494"
       d="m -109.03729,471.90077 h -61.65428 v -13.89809 h 61.65428 z" />
    <path
       id="rect1425-28-2-6"
       style="fill:#000000;fill-opacity:1;stroke-width:0.359724"
       d="m 50.526502,637.22129 -169.391242,-169.39118 9.82745,-9.82743 169.391234,169.39118 z" />
    <path
       id="rect1425-28-2-2"
       style="fill:#000000;fill-opacity:1;stroke-width:0.239824"
       d="M 106.83164,702.42521 V 595.94938 h 13.89809 v 106.47583 z" />
    <path
       id="rect1425-28-2-3"
       style="fill:#000000;fill-opacity:1;stroke-width:0.182494"
       d="M 120.72973,702.42521 H 59.07545 v -13.89809 h 61.65428 z" />
    <path
       id="rect1425-28-2-2-5"
       style="fill:#000000;fill-opacity:1;stroke-width:0.415949"
       d="M -170.69157,792.19222 V 471.90077 h 13.89809 v 320.29145 z" />
    <path
       id="rect1425-28-2-3-0"
       style="fill:#000000;fill-opacity:1;stroke-width:0.351272"
       d="m -170.69157,792.19222 h -228.43045 v -13.89809 h 228.43045 z" />
    <path
       id="rect1425-28-2-2-5-9"
       style="fill:#000000;fill-opacity:1;stroke-width:0.447669"
       d="M -245.35346,735.30973 V 364.30389 h 13.89809 v 371.00584 z" />
    <path
       id="rect1425-28-2-2-5-9-5"
       style="fill:#000000;fill-opacity:1;stroke-width:0.485162"
       d="M -322.32708,735.30973 V 299.55785 h 13.89809 v 435.75188 z" />
    <path
       id="rect1425-28-2-2-5-9-5-2"
       style="fill:#000000;fill-opacity:1;stroke-width:0.444891"
       d="M -399.3007,781.4331 V 415.01828 h 13.89809 V 781.4331 Z" />
    <path
       style="fill:#ff0000;fill-opacity:1;stroke:#ff0000;stroke-width:3.193;stroke-linecap:butt;stroke-linejoin:miter;stroke-miterlimit:4;stroke-dasharray:none;stroke-opacity:1"
       d="M -322.32708,735.30973 V 415.01828"
       id="path918-0-1-6"
       sodipodi:nodetypes="cc" />
    <path
       id="rect915-4-1-6-7-2-7-4"
       style="fill:#72e5f7;fill-opacity:1;stroke-width:0;stroke-miterlimit:4;stroke-dasharray:none"
       d="M -399.76741,415.01828 V 298.45459 h 14.3648 v 116.56369 z" />
    <path
       id="rect1425-9"
       style="fill:#000000;fill-opacity:1;stroke-width:0.160858"
       d="m -231.45929,364.29402 h 47.9021 v 13.89809 h -47.9021 z" />
    <path
       id="rect1425-9-9"
       style="fill:#000000;fill-opacity:1;stroke-width:0.24802"
       d="m -308.42899,299.55785 h 113.87864 v 13.89809 h -113.87864 z" />
    <path
       id="rect1425-9-9-8"
       style="fill:#000000;fill-opacity:1;stroke-width:0.183833"
       d="m -384.88997,299.55785 h 62.56289 v 13.89809 h -62.56289 z" />
  </g>
</svg>
