<?xml version="1.0" encoding="UTF-8" standalone="no"?>
<svg
   xmlns:dc="http://purl.org/dc/elements/1.1/"
   xmlns:cc="http://creativecommons.org/ns#"
   xmlns:rdf="http://www.w3.org/1999/02/22-rdf-syntax-ns#"
   xmlns:svg="http://www.w3.org/2000/svg"
   xmlns="http://www.w3.org/2000/svg"
   xmlns:sodipodi="http://sodipodi.sourceforge.net/DTD/sodipodi-0.dtd"
   xmlns:inkscape="http://www.inkscape.org/namespaces/inkscape"
   width="163.30186mm"
   height="52.62204mm"
   viewBox="0 0 163.30186 52.62204"
   version="1.1"
   id="svg2314"
   inkscape:version="1.0.2-2 (e86c870879, 2021-01-15)"
   sodipodi:docname="logo.svg">
  <defs
     id="defs2308" />
  <sodipodi:namedview
     id="base"
     pagecolor="#ffffff"
     bordercolor="#666666"
     borderopacity="1.0"
     inkscape:pageopacity="0.0"
     inkscape:pageshadow="2"
     inkscape:zoom="0.98994949"
     inkscape:cx="313.22136"
     inkscape:cy="267.89029"
     inkscape:document-units="mm"
     inkscape:current-layer="layer1"
     inkscape:document-rotation="0"
     showgrid="false"
     fit-margin-top="0"
     fit-margin-left="0"
     fit-margin-right="0"
     fit-margin-bottom="0"
     inkscape:window-width="1267"
     inkscape:window-height="1041"
     inkscape:window-x="165"
     inkscape:window-y="0"
     inkscape:window-maximized="0" />
  <metadata
     id="metadata2311">
    <rdf:RDF>
      <cc:Work
         rdf:about="">
        <dc:format>image/svg+xml</dc:format>
        <dc:type
           rdf:resource="http://purl.org/dc/dcmitype/StillImage" />
        <dc:title></dc:title>
      </cc:Work>
    </rdf:RDF>
  </metadata>
  <g
     inkscape:label="Layer 1"
     inkscape:groupmode="layer"
     id="layer1"
     transform="translate(-27.682402,-125.35565)">
    <path
       id="rect891-3-8-6-4-2-8"
       style="fill:#ff0202;fill-opacity:1;stroke:#ff0000;stroke-width:0.545168;stroke-miterlimit:4;stroke-dasharray:none;stroke-opacity:1;stop-color:#000000"
       transform="matrix(0.99999942,-0.00107765,-1.9635287e-4,0.99999998,0,0)"
       d="m 50.705959,132.44023 h 8.483484 v 1.69594 h -8.483484 z" />
    <g
       aria-label="flight"
       id="text835"
       style="font-style:normal;font-variant:normal;font-weight:normal;font-stretch:normal;font-size:52.6092px;line-height:1.25;font-family:'Franklin Gothic Demi';-inkscape-font-specification:'Franklin Gothic Demi';fill:#000000;fill-opacity:1;stroke-width:0.264583">
      <path
         d="m 77.609864,145.55152 v 19.98533 h -7.449545 v -19.98533 h -3.005506 v -5.95964 h 3.005506 q 0.05138,-4.00734 0.565138,-5.83119 0.53945,-1.84954 2.722937,-3.26239 2.183488,-1.43853 5.933948,-1.43853 1.541285,0 3.544956,0.28257 v 5.90826 q -1.644038,-0.12844 -2.722937,-0.12844 -1.566973,0 -2.080735,0.82202 -0.513762,0.82201 -0.513762,2.67156 v 0.97614 h 4.70092 v 5.95964 z"
         style="font-style:normal;font-variant:normal;font-weight:normal;font-stretch:normal;font-family:'Franklin Gothic Demi';-inkscape-font-specification:'Franklin Gothic Demi';fill:#000000;fill-opacity:1;stroke-width:0.264583"
         id="path843" />
      <path
         d="m 86.446567,165.53685 v -35.06424 h 7.655049 v 35.06424 z"
         style="font-style:normal;font-variant:normal;font-weight:normal;font-stretch:normal;font-family:'Franklin Gothic Demi';-inkscape-font-specification:'Franklin Gothic Demi';fill:#000000;fill-opacity:1;stroke-width:0.264583"
         id="path845" />
      <path
         d="m 108.05025,139.59188 v 25.94497 h -7.65505 v -25.94497 z m 0,-9.83853 v 7.65505 h -7.65505 v -7.65505 z"
         style="font-style:normal;font-variant:normal;font-weight:normal;font-stretch:normal;font-family:'Franklin Gothic Demi';-inkscape-font-specification:'Franklin Gothic Demi';fill:#000000;fill-opacity:1;stroke-width:0.264583"
         id="path847" />
      <path
         d="m 140.26311,140.18271 q -1.20734,-0.25688 -2.02936,-0.25688 -2.54312,0 -2.97982,2.26055 2.08073,2.18349 2.08073,4.93211 0,3.6734 -3.08257,5.85689 -3.05688,2.18348 -8.8367,2.18348 -2.05504,0 -4.00734,-0.38532 -1.31009,0.77064 -1.31009,1.97798 0,1.33579 1.10459,1.77248 1.10458,0.4367 5.31743,0.6422 5.98532,0.30826 8.24588,0.74496 2.26055,0.4367 3.80183,2.10642 1.54129,1.66973 1.54129,4.16147 0,3.57065 -3.31377,6.0367 -3.28807,2.46606 -11.68807,2.46606 -7.88625,0 -10.63487,-1.7211 -2.74863,-1.69542 -2.74863,-4.3156 0,-3.46789 4.44404,-4.67523 -3.28807,-1.64404 -3.28807,-4.62386 0,-3.72477 5.18899,-5.80551 -4.59817,-1.90091 -4.59817,-6.34495 0,-3.62202 3.15964,-5.88257 3.18532,-2.26056 8.78532,-2.26056 3.54496,0 6.85872,1.13028 0.23119,-2.20918 1.28441,-3.62202 1.07889,-1.43853 4.54679,-1.43853 1.13027,0 2.1578,0.2055 z m -14.89909,3.00551 q -1.97799,0 -3.10826,1.0789 -1.10459,1.05321 -1.10459,2.8 0,3.95596 4.23853,3.95596 2.05505,0 3.21101,-1.15596 1.18166,-1.15597 1.18166,-2.8 0,-1.54129 -1.10459,-2.69725 -1.10459,-1.18165 -3.31376,-1.18165 z m -5.11193,22.16881 q -0.46239,0 -1.18166,0.61652 -0.69357,0.61651 -0.69357,1.48991 0,1.74679 2.23486,2.18348 2.23486,0.4367 5.24037,0.4367 3.93028,0 5.49725,-0.59082 1.59266,-0.59083 1.59266,-1.90092 0,-1.00184 -1.33578,-1.54129 -1.31009,-0.53945 -7.03853,-0.53945 l -1.54129,0.0257 q -1.41284,0 -1.90092,-0.0771 -0.53945,-0.10276 -0.87339,-0.10276 z"
         style="font-style:normal;font-variant:normal;font-weight:normal;font-stretch:normal;font-family:'Franklin Gothic Demi';-inkscape-font-specification:'Franklin Gothic Demi';fill:#000000;fill-opacity:1;stroke-width:0.264583"
         id="path849" />
      <path
         d="m 150.87229,130.47261 v 12.66423 q 2.10642,-4.08441 7.01284,-4.08441 2.62019,0 4.46973,1.15597 1.87523,1.13027 2.62019,2.92844 0.77064,1.79817 0.77064,5.26606 v 17.13395 h -7.62936 v -14.61652 q 0,-2.62019 -0.20551,-3.59633 -0.2055,-0.97615 -0.95046,-1.61835 -0.71926,-0.66789 -1.82385,-0.66789 -1.43853,0 -2.85138,1.13027 -1.41284,1.10459 -1.41284,4.7523 v 14.61652 h -7.42386 v -35.06424 z"
         style="font-style:normal;font-variant:normal;font-weight:normal;font-stretch:normal;font-family:'Franklin Gothic Demi';-inkscape-font-specification:'Franklin Gothic Demi';fill:#000000;fill-opacity:1;stroke-width:0.264583"
         id="path851" />
      <path
         d="m 180.67046,145.55152 v 10.96881 q 0,2.05505 0.61652,2.74863 0.61651,0.69358 2.90275,0.69358 1.05321,0 2.44037,-0.10276 v 5.67707 q -3.33945,0.56514 -4.80367,0.56514 -4.77799,0 -6.78166,-1.82386 -2.00367,-1.84954 -2.00367,-6.65321 v -12.0734 h -4.11009 v -5.95964 h 4.54679 l 0.61651,-7.65505 6.57615,-0.51376 v 8.16881 h 5.60001 v 5.95964 z"
         style="font-style:normal;font-variant:normal;font-weight:normal;font-stretch:normal;font-family:'Franklin Gothic Demi';-inkscape-font-specification:'Franklin Gothic Demi';fill:#000000;fill-opacity:1;stroke-width:0.264583"
         id="path853" />
    </g>
    <path
       id="rect891-6"
       style="fill:#ff0202;fill-opacity:1;stroke:#ff0000;stroke-width:0.446046;stroke-miterlimit:4;stroke-dasharray:none;stroke-opacity:1;stop-color:#000000"
       transform="matrix(0.99999942,-0.00107765,-1.9635287e-4,0.99999998,0,0)"
       d="M 38.781097,153.2972 H 53.64693 v 1.30493 H 38.781097 Z" />
    <path
       id="rect891-3-1"
       style="fill:#ff0202;fill-opacity:1;stroke:#ff0000;stroke-width:0.792971;stroke-opacity:1;stop-color:#000000"
       transform="matrix(0.99999942,-0.00107765,-1.9635287e-4,0.99999998,0,0)"
       d="m 46.503387,159.16937 h 13.740268 v 3.9148 H 46.503387 Z" />
    <path
       id="rect891-3-8-1"
       style="fill:#ff0202;fill-opacity:1;stroke:#ff0000;stroke-width:0.792971;stroke-opacity:1;stop-color:#000000"
       transform="matrix(0.99999942,-0.0010776,-1.9635287e-4,0.99999998,0,0)"
       d="m 52.033596,140.94431 h 8.483483 v 5.82823 h -8.483483 z" />
    <path
       id="rect891-3-8-6-4-28"
       style="fill:#ff0202;fill-opacity:1;stroke:#ff0000;stroke-width:0.545168;stroke-miterlimit:4;stroke-dasharray:none;stroke-opacity:1;stop-color:#000000"
       transform="matrix(0.99999942,-0.00107765,-1.9635287e-4,0.99999998,0,0)"
       d="m 40.764435,137.87747 h 8.483483 v 1.69594 h -8.483483 z" />
    <path
       id="rect891-6-1"
       style="fill:#ff0202;fill-opacity:1;stroke:#ff0000;stroke-width:0.446046;stroke-miterlimit:4;stroke-dasharray:none;stroke-opacity:1;stop-color:#000000"
       transform="matrix(0.99999942,-0.00107765,-1.9635287e-4,0.99999998,0,0)"
       d="M 30.579998,144.7908 H 45.44583 v 1.30494 H 30.579998 Z" />
  </g>
</svg>
